<svg xmlns="http://www.w3.org/2000/svg" viewBox="0 0 89 125.56"><defs><style>.cls-1{opacity:0.4;}.cls-2,.cls-3{fill:none;stroke:gray;stroke-linecap:round;stroke-linejoin:round;}.cls-2{stroke-width:2px;}.cls-3{stroke-width:3px;}.cls-4{fill:#fff;}</style></defs><g id="Camada_2" data-name="Camada 2"><g id="Camada_3" data-name="Camada 3"><g class="cls-1"><path class="cls-2" d="M12.57,66.56s-2-26,8-29,15.49,0,15.49,0,13.51,9,21.51,8a116.17,116.17,0,0,1,13-1s7.32-1,6.16,22"/><path class="cls-2" d="M12.41,58.33s-9.84.23-9.79,13.43a10.86,10.86,0,0,0,1,4.71c3,6.09,14,5.09,14,5.09s4-2,4,7l8,6s6,4,9,1,2-5,2-5"/><path class="cls-2" d="M77.4,58.33s9.84.23,9.79,13.43a10.86,10.86,0,0,1-1,4.71c-3,6.09-14,5.09-14,5.09s-4-2-4,7l-8,6s-6,4-9,1-1.67-5-1.67-5"/><line class="cls-2" x1="35.57" y1="90.56" x2="53.63" y2="90.56"/><path class="cls-2" d="M4.41,63.56V32.22A18.07,18.07,0,0,1,7.8,21.64c4-5.57,12.76-13.37,31.77-20.08v9.28L52.22,1.56v9.78L63.85,1.56V11.85L74.46,1.56V15.89"/><path class="cls-2" d="M85.4,63.56V24s-.83-10.41-15.83-7.41"/><polyline class="cls-2" points="12.41 81.41 12.41 90.56 35.57 112.65 51.97 112.65 76.85 92.69 76.85 81.41"/><path class="cls-2" d="M21.68,99.4s4.89,13.16-1.11,25.16H68.23s-7.82-16.33.26-25.16"/><line class="cls-3" x1="21.68" y1="57.07" x2="36.81" y2="57.07"/><line class="cls-3" x1="51.21" y1="57.07" x2="67.57" y2="57.56"/><line class="cls-3" x1="23.57" y1="65.56" x2="35.57" y2="65.56"/><line class="cls-3" x1="53.63" y1="65.56" x2="65.36" y2="65.56"/><line class="cls-3" x1="40.73" y1="80.06" x2="49.28" y2="80.06"/></g><circle class="cls-4" cx="29.57" cy="66.56" r="2"/><circle class="cls-4" cx="59.57" cy="66.56" r="2"/><circle class="cls-4" cx="39" cy="80" r="2"/><circle class="cls-4" cx="51" cy="80" r="2"/><circle class="cls-4" cx="45" cy="91" r="2"/><circle class="cls-4" cx="36" cy="91" r="2"/><circle class="cls-4" cx="54" cy="91" r="2"/><circle class="cls-4" cx="21" cy="57" r="2"/><circle class="cls-4" cx="37" cy="57" r="2"/><circle class="cls-4" cx="51" cy="57" r="2"/><circle class="cls-4" cx="68" cy="57" r="2"/><circle class="cls-4" cx="20" cy="82" r="2"/><circle class="cls-4" cx="2" cy="71" r="2"/><circle class="cls-4" cx="12" cy="58" r="2"/><circle class="cls-4" cx="77" cy="58" r="2"/><circle class="cls-4" cx="87" cy="71" r="2"/><circle class="cls-4" cx="70" cy="82" r="2"/><circle class="cls-4" cx="12" cy="91" r="2"/><circle class="cls-4" cx="77" cy="93" r="2"/><circle class="cls-4" cx="35" cy="112" r="2"/><circle class="cls-4" cx="52" cy="113" r="2"/><circle class="cls-4" cx="36" cy="98" r="2"/><circle class="cls-4" cx="54" cy="98" r="2"/><circle class="cls-4" cx="5" cy="26" r="2"/><circle class="cls-4" cx="39" cy="2" r="2"/><circle class="cls-4" cx="53" cy="11" r="2"/><circle class="cls-4" cx="75" cy="2" r="2"/><circle class="cls-4" cx="75" cy="16" r="2"/><circle class="cls-4" cx="85" cy="38" r="2"/><circle class="cls-4" cx="56" cy="46" r="2"/><circle class="cls-4" cx="73" cy="45" r="2"/><circle class="cls-4" cx="24" cy="37" r="2"/></g></g></svg>